<?xml version="1.0" encoding="utf-8"?>
<!-- Generator: Adobe Illustrator 25.2.1, SVG Export Plug-In . SVG Version: 6.00 Build 0)  -->
<svg version="1.1" id="Capa_1" xmlns="http://www.w3.org/2000/svg" xmlns:xlink="http://www.w3.org/1999/xlink" x="0px" y="0px"
	 viewBox="0 0 475 475" style="enable-background:new 0 0 475 475;" xml:space="preserve">
<style type="text/css">
	.st0{fill:#19B6D5;}
	.st1{fill:none;stroke:#000000;stroke-width:6.6011;stroke-linecap:round;stroke-miterlimit:10;}
</style>
<g>
	<path class="st0" d="M389.2,239.5c-0.5,83.9-69,151.8-153.2,149.8C145.3,387.2,84.7,317,85.8,232.2c1-79.2,72-147.4,152.2-146.5
		C323,86.6,390.2,155,389.2,239.5z"/>
	<g>
		<path class="st1" d="M164.5,209.4c0,0,3.3-19.8,19.8-19.8s19.8,19.8,19.8,19.8"/>
		<path class="st1" d="M263.5,209.4c0,0,3.3-19.8,19.8-19.8s19.8,19.8,19.8,19.8"/>
		<path d="M200.8,239.1h66c0,0,3.3,72.6-29.7,72.6S197.5,258.9,200.8,239.1z"/>
	</g>
</g>
</svg>
