<?xml version="1.0" encoding="utf-8"?>
<!-- Generator: Adobe Illustrator 25.2.1, SVG Export Plug-In . SVG Version: 6.00 Build 0)  -->
<svg version="1.1" id="Capa_1" xmlns="http://www.w3.org/2000/svg" xmlns:xlink="http://www.w3.org/1999/xlink" x="0px" y="0px"
	 viewBox="0 0 475 475" style="enable-background:new 0 0 475 475;" xml:space="preserve">
<style type="text/css">
	.st0{fill:#ED3D75;}
	.st1{fill:none;stroke:#000000;stroke-width:5.1911;stroke-linecap:round;stroke-linejoin:round;stroke-miterlimit:10;}
</style>
<g>
	<path class="st0" d="M389,240.8c-0.8,80.7-70.6,148.9-152.2,148.4c-86.3-0.5-154-72.8-150.7-152.2c0.2-84.1,66.7-150.9,150.7-151.2
		C321.2,85.5,389.9,155.4,389,240.8z"/>
	<g>
		<polyline class="st1" points="168.8,193.4 197.3,198.6 168.8,211.5 		"/>
		<polyline class="st1" points="306.3,193.4 277.8,198.6 306.3,211.5 		"/>
		<g>
			<path d="M221.9,263.8c0.1,0,0.3,0,0.4,0c1.4,4.3,2.9,8.5,4.3,12.8c2,5.9,4,11.8,6,17.7c0.8,2.3,2.8,3.2,4.6,2
				c0.8-0.5,1.5-1.5,1.8-2.4c3.2-8.9,6.3-17.8,9.5-26.8c0.2-0.6,0.5-1.2,0.9-2.1c0.3,0.8,0.4,1.1,0.5,1.4c3.1,9.2,6.2,18.4,9.3,27.6
				c0.7,1.9,1.7,2.7,3.4,2.8c1.4,0,2.4-0.8,3-2.7c2.3-6.6,4.6-13.2,6.9-19.8c1.2-3.5,2.4-6.9,3.7-10.5c0.2,0.3,0.4,0.3,0.4,0.5
				c1,3.1,2,6.2,3,9.3c0.6,2.2,1.6,3,3.9,3c4.7,0,9.4,0,14.1,0c5,0,10,0,15,0c1.7,0,3.2-0.4,3.8-2.1c0.9-2.3-0.7-4.5-3.5-4.5
				c-8.6,0-17.2,0-25.8,0c-1.5,0-2-0.5-2.4-1.8c-1.5-4.7-3-9.4-4.6-14.2c-0.7-2-2.1-2.9-4.1-2.9c-1.7,0-2.8,0.9-3.6,3
				c-2.8,7.9-5.5,15.8-8.3,23.6c-0.6,1.7-1.2,3.4-1.9,5.3c-0.2-0.5-0.3-0.8-0.4-1c-3.1-9.3-6.2-18.5-9.4-27.8
				c-0.7-2.2-1.8-3.1-3.4-3.1c-1.6,0-2.7,0.9-3.4,2.9c-2.4,6.7-4.7,13.5-7.1,20.2c-1,2.8-2,5.6-3.1,8.8c-0.4-1.2-0.7-2-1-2.8
				c-3-8.8-5.9-17.6-8.9-26.3c-0.7-2.2-1.7-2.8-3.9-2.8c-2,0-3.1,0.8-3.8,2.8c-2.7,7.8-5.5,15.7-8.2,23.5c-0.6,1.8-1.3,3.6-2,5.6
				c-0.2-0.7-0.4-1-0.5-1.3c-3.1-9.3-6.2-18.5-9.4-27.8c-0.7-1.9-1.7-2.8-3.3-2.9c-1.6,0-2.7,0.9-3.4,2.8c-1.7,4.8-3.5,9.6-5.2,14.4
				c-0.5,1.5-1.2,2-2.8,2c-7.1-0.1-14.3-0.1-21.4,0c-2.5,0-3.9,1.6-3.6,3.8c0.3,1.8,1.7,2.8,4.1,2.8c7.5,0,15,0,22.5,0
				c5.5,0,5.4,0,7.3-5.2c0.8-2.2,1.6-4.3,2.5-6.9c0.6,1.8,1.1,3.2,1.6,4.6c2.8,8.2,5.5,16.4,8.3,24.6c0.4,1.2,0.9,2.4,2.3,2.8
				c1.9,0.6,3.7-0.3,4.4-2.6c2.7-7.8,5.5-15.6,8.2-23.4C220.2,268.4,221,266.1,221.9,263.8z"/>
			<path d="M221.9,263.8c-0.8,2.3-1.7,4.6-2.5,7c-2.7,7.8-5.5,15.6-8.2,23.4c-0.8,2.2-2.5,3.2-4.4,2.6c-1.4-0.5-1.9-1.6-2.3-2.8
				c-2.8-8.2-5.5-16.4-8.3-24.6c-0.5-1.4-1-2.7-1.6-4.6c-1,2.6-1.8,4.7-2.5,6.9c-1.8,5.2-1.8,5.2-7.3,5.2c-7.5,0-15,0-22.5,0
				c-2.4,0-3.8-1-4.1-2.8c-0.3-2.2,1.2-3.8,3.6-3.8c7.1,0,14.3-0.1,21.4,0c1.6,0,2.2-0.4,2.8-2c1.6-4.9,3.4-9.6,5.2-14.4
				c0.7-1.9,1.8-2.8,3.4-2.8s2.6,0.9,3.3,2.9c3.1,9.3,6.2,18.5,9.4,27.8c0.1,0.3,0.2,0.7,0.5,1.3c0.7-2.1,1.4-3.8,2-5.6
				c2.8-7.8,5.5-15.7,8.2-23.5c0.7-2,1.8-2.8,3.8-2.8c2.2,0,3.2,0.6,3.9,2.8c3,8.8,5.9,17.6,8.9,26.3c0.3,0.8,0.6,1.6,1,2.8
				c1.1-3.2,2.1-6,3.1-8.8c2.4-6.7,4.7-13.5,7.1-20.2c0.7-2,1.8-2.9,3.4-2.9c1.6,0,2.7,1,3.4,3.1c3.1,9.3,6.2,18.5,9.4,27.8
				c0.1,0.2,0.2,0.5,0.4,1c0.7-1.9,1.3-3.6,1.9-5.3c2.8-7.9,5.5-15.8,8.3-23.6c0.7-2,1.8-3,3.6-3c2.1,0,3.5,0.9,4.1,2.9
				c1.6,4.7,3.1,9.4,4.6,14.2c0.4,1.3,0.9,1.8,2.4,1.8c8.6-0.1,17.2-0.1,25.8,0c2.7,0,4.4,2.2,3.5,4.5c-0.7,1.7-2.2,2.1-3.8,2.1
				c-5,0-10,0-15,0c-4.7,0-9.4,0-14.1,0c-2.3,0-3.3-0.8-3.9-3c-0.9-3.1-2-6.2-3-9.3c0-0.1-0.2-0.2-0.4-0.5
				c-1.3,3.6-2.5,7.1-3.7,10.5c-2.3,6.6-4.6,13.2-6.9,19.8c-0.7,1.9-1.6,2.7-3,2.7c-1.7,0-2.7-0.8-3.4-2.8
				c-3.1-9.2-6.2-18.4-9.3-27.6c-0.1-0.3-0.2-0.7-0.5-1.4c-0.4,0.9-0.7,1.5-0.9,2.1c-3.1,8.9-6.3,17.9-9.5,26.8
				c-0.3,0.9-1,1.9-1.8,2.4c-1.8,1.2-3.8,0.3-4.6-2c-2-5.9-4-11.8-6-17.7c-1.4-4.3-2.9-8.5-4.3-12.8
				C222.1,263.8,222,263.8,221.9,263.8z"/>
		</g>
	</g>
</g>
</svg>
