<?xml version="1.0" encoding="utf-8"?>
<!-- Generator: Adobe Illustrator 26.0.1, SVG Export Plug-In . SVG Version: 6.00 Build 0)  -->
<svg version="1.1" id="Capa_1" xmlns="http://www.w3.org/2000/svg" xmlns:xlink="http://www.w3.org/1999/xlink" x="0px" y="0px"
	 viewBox="0 0 1920 475" style="enable-background:new 0 0 1920 475;" xml:space="preserve">
<style type="text/css">
	.st0{fill:#19B6D5;}
	.st1{fill:none;stroke:#000000;stroke-width:6.6011;stroke-linecap:round;stroke-miterlimit:10;}
	.st2{fill:#4BBA7D;}
	.st3{fill:none;stroke:#000000;stroke-width:6.7355;stroke-linecap:round;stroke-miterlimit:10;}
	.st4{fill:#FCCB29;}
	.st5{fill:#ED5354;}
	.st6{fill:none;stroke:#000000;stroke-width:5.1911;stroke-linecap:round;stroke-linejoin:round;stroke-miterlimit:10;}
	.st7{fill:#F38939;}
	.st8{fill:none;stroke:#000000;stroke-width:6.7894;stroke-linecap:round;stroke-miterlimit:10;}
</style>
<g>
	<path class="st0" d="M385.38,235.37c-0.45,83.89-69.02,151.77-153.16,149.83c-90.69-2.07-151.3-72.33-150.21-157.13
		c1-79.17,71.99-147.39,152.23-146.53C319.18,82.46,386.38,150.85,385.38,235.37z"/>
	<g>
		<path class="st1" d="M160.66,205.26c0,0,3.3-19.8,19.8-19.8s19.8,19.8,19.8,19.8"/>
		<path class="st1" d="M259.68,205.26c0,0,3.3-19.8,19.8-19.8c16.5,0,19.8,19.8,19.8,19.8"/>
		<path d="M196.97,234.97h66.01c0,0,3.3,72.61-29.7,72.61S193.67,254.77,196.97,234.97z"/>
	</g>
</g>
<g>
	<path class="st2" d="M747.16,234.78c-0.47,83.43-69.17,150.78-153.38,150.36c-82.63-0.41-150.01-68.88-149.83-152.26
		c0.17-82.82,68.01-150.8,150.91-151.21C679.02,81.23,747.63,150.22,747.16,234.78z"/>
	<g>
		<circle cx="531.57" cy="199.72" r="13.47"/>
		<circle cx="659.54" cy="199.72" r="13.47"/>
		<path class="st3" d="M558.51,267.07c0,0,37.05,30.31,70.72,0"/>
	</g>
</g>
<g>
	<path class="st4" d="M1109.06,234.29c-2.57,89.11-70.36,151.09-152.24,150.89c-79.55-0.19-151.89-59.23-151.1-156.34
		c0.64-78.54,66.89-146.09,148.43-147.22C1041.88,80.41,1109.18,150.95,1109.06,234.29z"/>
	<g>
		<circle cx="893.4" cy="203.08" r="13.47"/>
		<circle cx="1021.38" cy="203.08" r="13.47"/>
		<line class="st3" x1="920.35" y1="277.17" x2="991.07" y2="277.17"/>
	</g>
</g>
<g>
	<path class="st5" d="M1832.37,236.71c-0.78,80.73-70.63,148.86-152.23,148.37c-86.34-0.51-154-72.79-150.65-152.16
		c0.19-84.09,66.7-150.85,150.65-151.21C1764.53,81.36,1833.2,151.28,1832.37,236.71z"/>
	<g>
		<path d="M1707.6,277.52h-51.91c0,0-2.6-57.1,23.36-57.1C1705.01,220.42,1710.2,261.94,1707.6,277.52z"/>
		<polyline class="st6" points="1612.09,189.27 1640.65,194.46 1612.09,207.44 		"/>
		<polyline class="st6" points="1749.66,189.27 1721.11,194.46 1749.66,207.44 		"/>
	</g>
</g>
<g>
	<path class="st7" d="M1470.79,234.97c-1.47,82.01-64.74,150.21-152.73,149.98c-87.01-0.22-152.38-72.74-150.39-153.83
		c2.01-82.37,68.86-149.67,151.58-149.29C1403.03,82.23,1472.3,151.08,1470.79,234.97z"/>
	<g>
		<circle cx="1254.72" cy="199.45" r="13.58"/>
		<circle cx="1383.72" cy="199.45" r="13.58"/>
		<path class="st8" d="M1353.17,280.92c0,0-37.34-30.55-71.29,0"/>
	</g>
</g>
</svg>
