<?xml version="1.0" encoding="UTF-8"?>
<!DOCTYPE svg PUBLIC "-//W3C//DTD SVG 1.1//EN" "http://www.w3.org/Graphics/SVG/1.1/DTD/svg11.dtd">
<!-- Creator: CorelDRAW 2019 (64-Bit) -->
<svg xmlns="http://www.w3.org/2000/svg" xml:space="preserve" width="82.0861mm" height="17.1741mm" version="1.1" style="shape-rendering:geometricPrecision; text-rendering:geometricPrecision; image-rendering:optimizeQuality; fill-rule:evenodd; clip-rule:evenodd"
viewBox="0 0 6441.04 1347.6"
 xmlns:xlink="http://www.w3.org/1999/xlink">
 <defs>
  <style type="text/css">
   <![CDATA[
    .fil0 {fill:#434242;fill-rule:nonzero}
   ]]>
  </style>
 </defs>
 <g id="Capa_x0020_1">
  <metadata id="CorelCorpID_0Corel-Layer"/>
  <path class="fil0" d="M824.4 28.28l0 1003.98 -159.79 0 0 -442.6 -506.23 0 0 442.6 -158.38 0 0 -1003.98 158.38 0 0 419.98 506.23 0 0 -419.98 159.79 0zm226.25 1003.98l0 -1003.98 421.39 0c45.25,0 86.96,9.43 125.14,28.28 38.18,18.86 70.94,43.6 98.28,74.24 27.34,30.64 48.78,65.52 64.34,104.64 15.55,39.12 23.33,78.95 23.33,119.49 0,42.42 -7.31,83.19 -21.92,122.31 -14.61,39.12 -35.11,74 -61.51,104.64 -26.4,30.63 -58.21,55.15 -95.45,73.53 -37.23,18.38 -78.47,27.57 -123.73,27.57l-271.5 0 0 349.27 -158.38 0zm158.38 -489.26l261.6 0c22.62,0 43.13,-4.72 61.51,-14.14 18.38,-9.43 34.17,-22.62 47.37,-39.59 13.2,-16.97 23.56,-36.77 31.1,-59.39 7.55,-22.62 11.31,-47.61 11.31,-74.94 0,-28.28 -4.25,-53.73 -12.73,-76.36 -8.48,-22.63 -20.27,-42.19 -35.35,-58.69 -15.08,-16.5 -32.29,-29.23 -51.62,-38.18 -19.33,-8.95 -39.36,-13.43 -60.1,-13.43l-253.11 0 0 374.73zm1028.02 489.26l0 -1003.98 356.34 0c81.07,0 152.01,13.2 212.82,39.59 60.8,26.4 111.71,62.22 152.72,107.47 41.01,45.25 71.88,98.28 92.61,159.08 20.75,60.8 31.11,125.62 31.11,194.43 0,76.36 -11.55,145.41 -34.64,207.16 -23.1,61.75 -55.85,114.54 -98.28,158.37 -42.42,43.84 -93.8,77.78 -154.13,101.82 -60.33,24.03 -127.74,36.06 -202.21,36.06l-356.34 0zm684.4 -503.4c0,-52.79 -7.31,-101.34 -21.92,-145.65 -14.61,-44.3 -36.06,-82.25 -64.34,-113.83 -28.28,-31.58 -62.69,-56.32 -103.22,-74.24 -40.54,-17.91 -86.73,-26.87 -138.58,-26.87l-197.96 0 0 724 197.96 0c52.79,0 99.69,-9.19 140.7,-27.57 41.01,-18.38 75.41,-43.84 103.22,-76.36 27.82,-32.52 48.79,-70.94 62.93,-115.25 14.14,-44.3 21.21,-92.38 21.21,-144.23zm304.03 503.4l0 -739.55 155.54 0 0 739.55 -155.54 0zm0 -861.16l0 -171.1 155.54 0 0 171.1 -155.54 0zm632.07 868.23c-49.96,0 -95.45,-10.13 -136.45,-30.4 -41.01,-20.28 -76.36,-47.85 -106.06,-82.73 -29.69,-34.88 -52.79,-74.94 -69.29,-120.2 -16.5,-45.25 -24.75,-92.86 -24.75,-142.82 0,-52.79 8.25,-102.52 24.75,-149.18 16.49,-46.66 39.83,-87.2 69.99,-121.61 30.17,-34.42 66.23,-61.75 108.17,-82.02 41.96,-20.27 88.39,-30.4 139.29,-30.4 60.33,0 112.65,14.14 156.97,42.42 44.3,28.28 81.07,65.05 110.29,110.3l0 -139.99 137.17 0 0 718.34c0,53.73 -9.9,101.34 -29.7,142.82 -19.8,41.48 -47.37,76.6 -82.72,105.35 -35.35,28.75 -77.07,50.67 -125.15,65.76 -48.08,15.08 -99.93,22.62 -155.54,22.62 -82.01,0 -149.89,-13.9 -203.62,-41.71 -53.73,-27.81 -99.46,-66.7 -137.17,-116.66l87.67 -82.01c28.28,39.59 64.81,69.76 109.59,90.5 44.77,20.74 92.61,31.1 143.52,31.1 32.05,0 62.45,-4.24 91.21,-12.73 28.75,-8.48 53.97,-21.68 75.65,-39.59 21.68,-17.91 38.89,-40.54 51.62,-67.88 12.72,-27.34 19.08,-59.86 19.08,-97.57l0 -113.13c-26.4,45.25 -62.69,80.13 -108.88,104.64 -46.19,24.51 -94.74,36.76 -145.65,36.76zm50.91 -125.85c23.57,0 46.19,-4 67.87,-12.02 21.68,-8.01 41.71,-18.85 60.1,-32.52 18.38,-13.67 34.17,-29.23 47.37,-46.66 13.2,-17.44 22.63,-36.06 28.28,-55.86l0 -193.73c-18.85,-47.14 -48.08,-85.54 -87.67,-115.24 -39.59,-29.69 -82.01,-44.54 -127.27,-44.54 -33.94,0 -64.34,7.31 -91.2,21.92 -26.87,14.61 -49.73,33.94 -68.59,57.98 -18.85,24.03 -33.47,51.14 -43.83,81.31 -10.37,30.16 -15.55,61.27 -15.55,93.33 0,33.94 5.89,65.75 17.67,95.45 11.79,29.69 28.04,55.62 48.79,77.77 20.74,22.16 45.01,39.83 72.82,53.03 27.82,13.2 58.21,19.8 91.21,19.8zm541.59 118.78l0 -739.55 155.54 0 0 739.55 -155.54 0zm0 -861.16l0 -171.1 155.54 0 0 171.1 -155.54 0zm752.27 822.98c-20.74,9.43 -48.31,20.03 -82.72,31.82 -34.41,11.79 -71.88,17.68 -112.42,17.68 -24.51,0 -47.37,-3.3 -68.58,-9.9 -21.21,-6.6 -40.07,-16.49 -56.56,-29.69 -16.5,-13.2 -29.46,-30.41 -38.89,-51.62 -9.43,-21.21 -14.14,-46.9 -14.14,-77.06l0 -462.4 -98.99 0 0 -120.2 98.99 0 0 -243.22 155.54 0 0 243.22 161.2 0 0 120.2 -161.2 0 0 412.9c0,26.4 7.54,45.49 22.62,57.27 15.08,11.78 33.47,17.67 55.15,17.67 21.69,0 42.43,-3.77 62.22,-11.31 19.8,-7.54 34.41,-13.67 43.83,-18.38l33.94 123.02zm299.78 52.32c-35.82,0 -69.05,-5.89 -99.69,-17.68 -30.63,-11.78 -57.03,-28.04 -79.18,-48.78 -22.16,-20.74 -39.59,-45.25 -52.32,-73.53 -12.73,-28.28 -19.09,-58.92 -19.09,-91.91 0,-34.89 7.54,-66.46 22.62,-94.75 15.09,-28.28 36.53,-52.79 64.34,-73.53 27.81,-20.74 60.8,-36.76 98.99,-48.08 38.17,-11.31 80.37,-16.96 126.56,-16.96 34.88,0 69.29,3.06 103.22,9.19 33.94,6.13 64.58,14.38 91.92,24.75l0 -50.91c0,-54.68 -15.56,-97.33 -46.66,-127.97 -31.11,-30.64 -75.89,-45.96 -134.34,-45.96 -39.59,0 -78.48,7.31 -116.66,21.92 -38.17,14.62 -77.53,35.59 -118.07,62.93l-48.08 -98.99c95.22,-64.1 194.2,-96.15 296.96,-96.15 101.81,0 181,25.93 237.56,77.77 56.57,51.85 84.85,126.32 84.85,223.43l0 267.26c0,17.91 3.3,30.63 9.89,38.17 6.6,7.54 17.91,11.79 33.94,12.73l0 132.92c-15.08,2.82 -28.99,4.72 -41.71,5.66 -12.73,0.94 -24.27,1.41 -34.64,1.41 -30.16,-1.88 -53.03,-9.89 -68.58,-24.04 -15.56,-14.14 -25.22,-32.99 -28.99,-56.56l-4.24 -46.66c-33,43.37 -73.77,76.59 -122.31,99.69 -48.56,23.09 -100.63,34.64 -156.26,34.64zm42.43 -114.54c37.7,0 73.3,-6.83 106.76,-20.5 33.47,-13.67 59.62,-32.76 78.47,-57.27 19.8,-16.96 29.7,-34.88 29.7,-53.73l0 -97.57c-26.4,-10.37 -54.44,-18.38 -84.14,-24.04 -29.69,-5.66 -58.69,-8.48 -86.96,-8.48 -55.62,0 -101.1,12.02 -136.45,36.06 -35.36,24.04 -53.03,55.86 -53.03,95.45 0,36.76 13.67,67.64 41.01,92.61 27.34,24.98 62.22,37.48 104.64,37.48zm561.38 -931.86l155.54 0 0 814.5c0,27.34 7.07,48.78 21.21,64.34 14.14,15.55 33.94,23.34 59.39,23.34 10.37,0 22.62,-1.66 36.76,-4.95 14.15,-3.3 27.35,-7.78 39.59,-13.43l22.63 125.85c-22.63,10.37 -49.5,18.61 -80.6,24.74 -31.11,6.13 -58.92,9.2 -83.43,9.2 -53.73,0 -95.68,-14.61 -125.85,-43.84 -30.16,-29.22 -45.24,-70.7 -45.24,-124.43l0 -875.31z"/>
 </g>
</svg>
