<?xml version="1.0" encoding="UTF-8"?>
<!DOCTYPE svg PUBLIC "-//W3C//DTD SVG 1.1//EN" "http://www.w3.org/Graphics/SVG/1.1/DTD/svg11.dtd">
<!-- Creator: CorelDRAW 2019 (64-Bit) -->
<svg xmlns="http://www.w3.org/2000/svg" xml:space="preserve" width="400" height="400" version="1.1" style="shape-rendering:geometricPrecision; text-rendering:geometricPrecision; image-rendering:optimizeQuality; fill-rule:evenodd; clip-rule:evenodd"
viewBox="0 0 86091.27 92787.61"
 xmlns:xlink="http://www.w3.org/1999/xlink">
 <defs>
  <style type="text/css">
   <![CDATA[
    .fil0 {fill:#111111}
    .fil1 {fill:#FEFEFE}
   ]]>
  </style>
 </defs>
 <g id="Capa_x0020_1">
  <metadata id="CorelCorpID_0Corel-Layer"/>
  <g id="_1038849297552">
   <path class="fil0" d="M64339.22 73568.37c-294.32,-4709.28 -882.96,-10301.45 0,-15304.97 1177.28,2648.88 1177.28,12950.32 0,15304.97zm20602.89 -22957.45c-883.04,294.32 -1177.36,-294.32 -1471.68,-883.04 294.32,1177.36 1471.68,2943.28 1177.28,4120.65 -882.96,-588.72 -882.96,-1177.36 -1471.6,-1766 294.32,1177.28 882.96,2060.32 588.64,2943.28 -1177.28,-294.32 -882.96,-882.96 -1471.6,-2060.32 294.32,1177.36 294.32,1177.36 0,2060.32 0,-294.32 0,-294.32 0,-294.32l-882.96 -1766c-588.72,1766 294.32,883.04 -883.04,1177.36 -588.64,-2060.32 -882.96,-3531.92 -1471.6,-5886.56 -588.64,-1471.6 -2060.32,-3237.6 -2943.28,-4709.2 -1177.28,-2354.64 -1177.28,-2943.28 -2060.24,-5592.24 -588.64,-2060.24 -1766,-3237.6 -2354.64,-5297.84 -588.64,1177.28 -1765.92,5003.52 -1177.28,6769.52 1765.92,6769.52 5592.16,5886.48 2060.24,21485.77 -2060.24,8241.21 -294.32,11184.41 -1765.92,15893.69 -4120.56,13244.64 -2060.32,8241.12 -1177.28,14127.6 -883.04,588.64 -2648.96,1177.36 -3531.92,883.04l-294.4 -883.04c-588.64,-2943.2 294.4,-7358.16 294.4,-8829.76 0,-3531.92 -883.04,-6475.2 -588.72,-10301.45 883.04,-5003.52 294.32,-15304.97 -882.96,-20014.17 -1471.6,2060.32 -1765.92,16482.25 -1177.28,19425.53 588.64,4414.88 -294.32,6475.2 -588.64,10595.77 0,1177.28 1471.6,7946.8 0,10007.13 -1177.36,294.32 -2648.96,-294.4 -3531.92,-883.04 294.32,-1765.92 1765.92,-2354.56 1177.28,-7358.16 -588.64,-2060.24 -1471.6,-4414.88 -2060.24,-6769.44 -1766,-5003.6 0,-7652.48 -1766,-15893.69 -3531.92,-15010.65 -588.64,-13538.96 1766,-21191.45 588.64,-2060.32 -588.72,-5003.6 -883.04,-7358.16 -882.96,2060.24 -1765.92,3531.92 -2354.56,5297.84 -883.04,2354.64 -883.04,3531.92 -2060.32,5592.24 -3826.24,5886.48 -2060.24,2943.28 -3531.92,7946.8 -588.64,882.96 -882.96,1765.92 -1177.28,2943.28 -882.96,-294.32 0,294.32 -588.64,-294.32 0,-294.4 0,-588.72 -294.32,-883.04l-588.64 1766c-588.72,0 -294.4,294.32 -883.04,-882.96 -294.32,1177.28 0,882.96 -882.96,1177.28 0,-1471.68 588.64,-2354.64 882.96,-3531.92 -294.32,588.64 -294.32,588.64 -588.64,1177.28 0,0 -294.32,588.64 -294.32,588.64 -588.64,588.72 0,0 -588.64,588.72 -294.32,-588.72 -294.32,-883.04 0,-1766 294.32,-294.32 588.64,-882.96 588.64,-1471.6 0,0 0,0 0,0l-1471.6 -294.32c882.96,-588.72 1177.28,-1766 1765.92,-2648.96 882.96,-882.96 1766,-1177.28 2648.96,-2060.32 588.64,-882.96 1471.6,-5297.84 2354.56,-7063.84 3826.24,-7946.8 2060.32,-9124.08 3826.24,-15010.56 883.04,-2943.28 3237.6,-2648.96 5592.24,-3826.24 882.96,-294.4 2354.64,-1177.36 2060.24,-2354.64 -882.96,-1766 0,0 -1177.28,-294.32 -588.64,-294.32 -882.96,-588.64 -1177.28,-1177.28 -2648.96,-4709.28 0,-12361.77 5592.16,-11478.81 7358.16,1177.36 5886.56,11184.41 3531.92,12361.77 -1177.28,588.64 -294.32,-588.64 -1177.28,0 -294.32,294.32 -294.32,294.32 -588.64,588.64 0,1177.28 1177.28,2060.24 2060.24,2648.96 6769.52,2943.2 4414.96,-588.72 7063.84,11773.04 1177.36,6180.8 882.96,2943.2 2354.64,6769.44 882.96,1766 1765.92,6180.88 2648.96,7063.84 0,294.32 3237.52,2648.96 3826.24,4414.96 294.32,588.64 294.32,0 0,588.64zm-39439.78 -294.32c0,0 -294.32,-883.04 -294.32,-294.32 0,0 294.32,0 294.32,0 0,0 -294.32,882.96 0,294.32zm588.64 882.96c0,-588.64 294.32,588.64 0,0zm1177.36 882.96l-883.04 1766 883.04 -1766zm882.96 882.96c294.32,-1177.28 -294.32,588.64 0,0zm33847.54 -1177.28l294.32 1177.28c-294.32,-882.96 -588.64,-588.64 -294.32,-1177.28zm1177.28 0c-294.32,-882.96 0,882.96 0,0zm-22368.81 -33553.22c-2648.96,2648.96 -6180.8,588.64 -7358.16,5592.24 -588.64,3531.92 -882.96,7946.8 -2060.24,11184.41 -294.32,1177.28 -1471.68,2943.2 -2060.32,4414.88 -882.96,1765.92 -882.96,3531.92 -1471.6,5297.84 -588.64,1177.28 -3531.92,2354.64 -4709.2,5003.52 -588.72,1177.36 294.32,1177.36 882.96,2060.32 -1177.36,2354.64 294.32,3826.24 1177.28,4120.56 882.96,0 1766,-294.32 2648.96,-882.96 1471.6,-588.64 1177.28,-588.64 1765.92,-2354.64 1471.68,-3237.6 588.64,-2648.88 2060.32,-6180.8 882.96,-1766 2060.24,-2648.96 3237.6,-5003.6 882.96,-2354.56 882.96,-3826.24 2060.24,-6180.8 1471.68,2060.24 882.96,4120.56 -294.32,6180.8 -3826.24,8241.12 -2648.96,12361.77 -588.64,20897.21 1177.28,5297.84 0,10301.45 1471.6,15304.97 1177.36,2648.96 2943.28,7358.16 2060.32,10595.77 -588.64,1177.28 -2354.64,2648.88 -294.32,3826.24 882.96,294.32 3237.6,1177.28 4120.56,294.32 1471.6,-1471.68 882.96,-5886.56 588.64,-8241.12 -588.64,-2648.96 0,-5886.56 294.32,-8829.85 2648.96,5003.6 -1471.6,12656.09 1177.28,17365.29 2060.32,294.32 3826.24,-294.32 5003.6,-1471.68 294.32,-2060.24 -1766,-2943.2 -1177.36,-7063.76 294.4,-2060.32 1471.68,-4414.96 2060.32,-6475.2 1471.6,-5003.52 294.32,-10007.13 1471.6,-15304.97 1177.36,-4414.88 2648.96,-9418.49 1766,-14422.01 -1471.68,-6769.52 -5003.52,-8829.76 -2648.96,-12656 1177.28,2354.56 1177.28,3531.92 2060.32,6180.8 882.96,2060.32 2060.24,3237.6 3237.6,5003.6 1177.28,2354.56 1177.28,3826.24 2060.24,6180.8 1177.28,3237.6 4120.56,3826.24 5297.84,2354.64 1471.68,-1766 883.04,-2060.32 588.72,-3237.6 0,0 0,-294.32 0,-294.32 0,294.32 294.32,0 294.32,0 882.96,-1177.28 882.96,-882.96 -1177.36,-3531.92 -882.96,-1765.92 -2354.56,-2060.32 -2943.2,-3531.92 -883.04,-1471.6 -883.04,-3237.6 -1471.68,-5003.52 -882.96,-1471.68 -1765.92,-2943.28 -2354.56,-4414.88 -1177.36,-3531.92 -1177.36,-7652.48 -2060.32,-11184.41 -1177.28,-5003.6 -5003.52,-2943.28 -7358.16,-5886.56 2354.64,-588.64 3826.24,-4709.2 3237.6,-8241.12 -1471.6,-7358.16 -11184.41,-8535.44 -13244.73,-588.64 -882.96,3237.6 -294.32,6475.12 2354.64,8829.76 294.32,294.32 0,0 294.32,294.32z"/>
   <path class="fil0" d="M11949.12 47667.63c294.32,-3826.24 1766,-11478.73 883.04,-15010.65 -294.4,2648.96 294.32,3826.24 -588.72,6475.2 -882.96,2354.56 -2354.56,5003.52 -3531.92,7358.16 -294.32,882.96 -1177.28,6769.44 -2354.56,7358.16 -588.64,-588.72 -294.32,-883.04 -294.32,-2060.32 0,882.96 -588.64,2060.32 -882.96,2943.28 -2060.32,-294.32 588.64,-882.96 -1471.68,-588.64 0,0 -294.32,294.32 -588.64,294.32l294.32 -2354.64c-588.64,1177.28 -294.32,1177.28 -1471.6,1471.6 -294.32,-1765.92 882.96,-2648.88 1177.28,-5297.84 -1177.28,294.32 -1177.28,1177.28 -2354.64,588.64 294.32,-1177.28 0,-588.64 883.04,-1471.6 2648.88,-2943.28 3237.52,-588.64 4120.56,-2943.28 882.96,-2648.96 588.64,-5003.52 1471.6,-7652.48 294.32,-1471.6 882.96,-2354.64 1177.28,-3531.92 883.04,-2060.24 -588.64,-10595.77 883.04,-12950.32 1471.6,-2354.64 3237.52,-2354.64 5886.48,-3531.92 6475.2,-2943.28 882.96,-5297.92 1177.28,-8241.12 0,-2354.64 -1177.28,-5592.24 1471.68,-6769.52 882.96,-294.32 882.96,-294.32 1765.92,-882.96 588.64,-294.4 588.64,-294.4 1471.68,-294.4 882.96,0 4709.2,1471.68 5003.52,4414.96 0,882.96 -294.32,1471.6 -294.32,2060.24 0,1177.36 294.32,882.96 294.32,2060.32 0,588.64 -1177.28,2354.56 -1471.6,2943.28 -2648.96,5592.16 6769.44,4414.88 8829.76,8241.12 1177.28,2648.88 -294.32,10890.09 882.96,13244.64 2354.64,6475.2 1177.28,8241.12 2648.96,10890.09 588.64,1471.6 4414.88,1766 4709.2,4414.88 -1177.28,588.64 -1471.6,0 -2354.56,-588.64 294.32,1766 1765.92,4120.56 882.96,5297.84 -882.96,-588.64 -588.64,-588.64 -1177.36,-1471.6l294.4 2354.64 -1177.36 -294.32c-882.96,294.32 882.96,588.64 -882.96,588.64 -294.32,-588.64 -588.64,-1177.36 -588.64,-2060.32 -588.64,882.96 0,882.96 -882.96,1177.36 -588.72,-588.72 -588.72,-1177.36 -883.04,-2354.64l-1471.6 -5592.24c-294.32,-588.64 -588.64,-1471.6 -1177.28,-2060.24 -3826.24,-8535.44 -1766,-4709.2 -2648.96,-11184.41 -1471.6,6475.2 3531.92,17953.93 0,29432.65 -1471.6,4414.88 588.64,8829.76 -1177.28,14422.01 -294.32,1765.92 -1471.68,5297.84 -1471.68,6769.44 -294.32,3531.92 1177.36,4120.56 1471.68,6475.2 -588.72,882.96 -2648.96,2943.28 -4120.56,2060.32 -883.04,-588.72 -588.72,-883.04 -883.04,-2060.32 -588.64,-3826.24 -588.64,-3826.24 0,-7652.48 588.64,-2354.64 -1177.28,-6769.52 -588.64,-10301.45 294.32,-3531.92 -882.96,-18836.89 -1471.6,-20897.13 -588.64,588.64 -294.32,0 -588.64,2354.56 0,2943.28 -883.04,5003.6 -883.04,7946.8 0,4120.65 -882.96,6475.2 -294.32,10890.09 588.64,3826.24 -1177.28,7652.48 -588.64,10595.77 882.96,2648.96 588.64,7652.48 -882.96,9418.49 -1766,-294.32 -3237.6,-1177.36 -4120.56,-2060.32 0,-2060.24 1471.6,-3237.6 1471.6,-6180.88 294.32,-2060.24 -882.96,-4709.2 -1471.6,-6475.12 -2060.32,-8829.85 588.64,-10301.45 -882.96,-15010.65 -1471.68,-4709.2 -1766,-9418.49 -1177.36,-14716.33zm-8535.44 4120.56c0,882.96 294.32,-882.96 0,0zm35613.45 0c0,882.96 -294.32,-882.96 0,0zm-21485.77 -37968.1c-2354.64,4414.88 -10301.45,1471.6 -9712.81,10301.45 0,2354.56 0,4414.88 0,6769.44 0,2060.32 -882.96,3237.6 -1177.28,5297.92 -882.96,1765.92 -588.64,3531.92 -1177.28,5592.16 -883.04,3826.24 -294.32,2060.32 -2943.28,3826.24 -1177.36,588.72 -882.96,588.72 -1766,1471.68 -882.96,1177.28 -882.96,882.96 -588.64,2648.88l1766 294.4c-1177.36,2943.2 -1177.36,3531.84 588.64,5003.52 1765.92,882.96 3826.24,0 4709.2,-588.64 588.64,-588.64 882.96,-1471.68 882.96,-2354.64 294.32,-1177.28 588.64,-1471.6 883.04,-2354.64 294.32,-1177.28 294.32,-1765.92 588.64,-2648.88 294.32,-1471.68 1765.92,-3237.6 1765.92,-4120.56 294.32,3237.6 -1177.28,5592.16 -294.32,14127.6 294.32,2648.96 882.96,4120.56 1471.6,6180.88 294.4,2648.96 -294.32,5297.84 -294.32,7652.48 -294.32,7063.84 4120.56,10301.45 1766,15893.61 -294.32,1177.36 -1177.28,2060.32 -882.96,3237.6 294.32,1177.28 3237.52,2943.28 5297.84,2648.96 1765.92,-1471.68 2060.32,-5297.92 1765.92,-7946.8 0,-1766 -588.64,-2648.96 -294.32,-4414.88 0,-1177.36 294.32,-2648.96 588.72,-4120.65 294.32,-3531.84 -588.72,-6180.8 -294.4,-9712.72 588.72,-2354.64 0,-7063.84 1177.36,-8829.76 588.64,2943.2 294.32,5886.48 882.96,8829.76 294.32,3531.92 -588.64,6180.88 -294.32,9712.72 294.32,1471.68 588.64,2648.96 588.64,4120.65 294.32,1765.92 -294.32,2354.56 -294.32,4120.56 -294.32,2648.88 0,6769.44 1765.92,8241.12 2060.32,294.32 5003.6,-1177.36 5297.92,-2354.64 294.32,-1471.6 -1471.68,-3826.24 -1766,-5886.48 0,-3826.24 2648.96,-8241.21 2648.96,-12950.41 0,-2648.96 -588.64,-4709.2 -294.32,-7358.16 294.32,-1765.92 1177.28,-4120.56 1471.6,-6180.8 588.72,-5886.56 0,-9418.49 -294.32,-14716.33 0,0 0,0 0,0l588.64 882.96c0,294.32 294.4,588.64 588.72,882.96 1765.92,4120.56 1765.92,8535.44 2943.2,9418.49 883.04,588.64 2943.28,1471.6 4414.96,588.64 2354.56,-1471.68 2060.24,-2648.96 1177.28,-4709.2 1177.28,-883.04 2943.28,-1177.36 588.64,-3237.6 -588.64,-588.64 -882.96,-1177.36 -1471.6,-1471.68 -2060.32,-1471.6 -2060.32,294.32 -2943.28,-3237.52 -294.32,-1766 -294.32,-3531.92 -588.64,-5297.92 -588.64,-1765.92 -1471.68,-3237.6 -1766,-4414.88 -588.64,-2943.28 588.64,-9124.08 -294.32,-11773.04 -882.96,-3237.6 -4120.56,-3531.92 -7063.84,-5003.52 -5003.52,-2060.32 0,-4120.65 -294.32,-7652.48 0,-1177.36 0,-4414.96 -588.64,-5297.92 -588.64,-882.96 -2354.64,-2060.24 -3531.92,-2648.96 -2354.56,-882.96 -7063.84,294.32 -7652.48,3826.24 0,294.32 294.32,5297.92 294.32,5592.24 294.32,882.96 1766,2943.28 2060.32,4120.56z"/>
   <path class="fil1" d="M64339.22 73568.37c1177.28,-2354.64 1177.28,-12656.09 0,-15304.97 -882.96,5003.52 -294.32,10595.68 0,15304.97z"/>
  </g>
 </g>
</svg>
