<?xml version="1.0" encoding="UTF-8"?>
<!DOCTYPE svg PUBLIC "-//W3C//DTD SVG 1.1//EN" "http://www.w3.org/Graphics/SVG/1.1/DTD/svg11.dtd">
<!-- Creator: CorelDRAW 2019 (64-Bit) -->
<svg xmlns="http://www.w3.org/2000/svg" xml:space="preserve" width="400" height="400" version="1.1" style="shape-rendering:geometricPrecision; text-rendering:geometricPrecision; image-rendering:optimizeQuality; fill-rule:evenodd; clip-rule:evenodd"
viewBox="0 0 10926.59 14527.68"
 xmlns:xlink="http://www.w3.org/1999/xlink">
 <defs>
  <style type="text/css">
   <![CDATA[
    .fil0 {fill:#010101}
    .fil1 {fill:white}
   ]]>
  </style>
 </defs>
 <g id="Capa_x0020_1">
  <metadata id="CorelCorpID_0Corel-Layer"/>
  <path class="fil0" d="M10504.44 7344.74c-32.17,-64.34 -64.34,-160.87 -96.52,-225.21 -64.35,-160.86 -225.21,-225.21 193.03,-643.45 0,321.73 -96.52,482.59 -96.52,868.67zm-10166.62 -868.67c32.17,64.34 64.34,64.34 128.69,160.86 32.17,64.34 32.17,64.34 64.34,96.52 160.87,225.21 -96.52,321.73 -96.52,579.12 -32.17,-160.87 -32.17,-289.56 -64.34,-450.42 -32.17,-160.87 -96.52,-160.87 -32.17,-386.07zm10134.44 -32.17l-128.7 128.69c0,-128.69 0,-64.34 32.17,-128.69 32.18,-128.7 96.53,-160.87 225.21,-225.21l128.69 64.34 32.17 128.7 32.17 64.34 -96.52 1640.82c-32.17,128.69 -128.69,289.55 -160.86,418.25 -96.52,225.21 96.52,546.94 -96.52,997.35 -64.35,128.69 -128.7,257.38 -225.21,353.9 -64.34,32.17 -257.39,160.86 -386.07,193.03l160.87 -611.28c32.17,-64.34 514.76,-418.25 353.89,-772.15 -160.86,32.17 -128.69,160.86 -160.86,321.73 -64.34,160.86 -96.52,160.86 -160.86,257.38l96.52 -514.76c0,-96.52 32.17,-257.39 64.34,-321.73l96.52 -933.01c96.52,289.56 257.39,643.46 32.17,965.18 -32.17,32.17 -64.34,64.35 -96.52,128.7l64.34 32.17c193.04,-64.34 321.73,-386.07 257.39,-707.81 -64.34,-579.11 -257.39,-386.07 -193.04,-707.81 0,160.87 96.53,321.73 257.39,353.9 64.34,-160.86 32.17,-418.25 64.34,-611.28 64.34,-257.39 96.52,-193.04 96.52,-514.76l-96.52 -96.53c-64.34,-32.17 64.34,-32.17 -96.52,-32.17l-32.17 96.53c-32.17,32.17 0,0 -64.34,32.17zm-10230.96 -96.53c-96.53,160.87 -96.53,289.56 0,482.6l32.17 257.38c0,0 0,0 0,0l0 450.42 128.69 -32.17 96.52 -128.69c32.17,-64.34 64.34,-160.87 96.52,-225.21 64.35,96.53 32.18,64.34 32.18,193.04l-96.53 64.34c-64.34,225.21 -193.03,386.07 -160.86,643.45 32.17,289.56 64.34,514.77 321.73,579.12 0,-193.04 0,-128.7 -96.53,-257.39 -193.03,-257.38 -32.17,-611.28 -32.17,-739.98 32.17,-32.17 0,-32.17 32.17,-96.52 64.35,-64.34 0,0 64.35,-32.17l0 225.21c32.17,225.21 64.34,514.76 96.52,739.97 64.34,257.39 128.69,546.94 128.69,772.15 -96.52,-96.52 -128.69,-193.03 -160.86,-353.9 -128.7,-193.03 128.69,-96.52 -128.7,-193.03 -32.17,128.69 -32.17,160.86 0,289.56 32.18,96.52 64.35,160.86 128.7,257.38 64.34,96.52 128.69,96.52 193.03,193.04 32.17,32.17 160.87,579.11 160.87,611.28 -900.84,-289.56 -675.63,-1319.09 -675.63,-1447.77 -32.17,-257.39 -225.21,-386.07 -193.03,-1093.88 0,0 0,32.17 -32.17,-64.34 0,-32.17 0,-64.34 0,-96.52 0,-32.17 0,-96.52 -32.18,-128.7 0,-96.52 0,-225.21 0,-321.72 0,-96.52 -32.17,-193.04 -32.17,-289.56 0,-289.56 64.35,-225.21 96.53,-257.39 0,-128.69 0,-96.52 96.52,-160.86 160.86,64.34 289.55,193.04 289.55,418.25 -96.52,-193.03 -160.86,-160.86 -193.03,-193.03 0,0 0,0 0,-32.17l-64.34 -96.53c0,0 0,0 0,0 -128.69,32.17 -64.34,-32.17 -96.52,64.34zm4761.58 -6177.18c257.38,-96.52 1093.87,0 1383.43,64.34 386.07,96.53 772.15,225.21 1093.88,386.07 193.03,96.52 321.72,160.87 514.76,257.39 160.86,128.69 257.38,225.21 418.25,321.73 353.9,225.21 611.28,579.11 772.15,707.8 96.52,96.52 128.69,64.34 193.03,193.04 160.86,450.42 193.04,386.07 353.9,772.14 160.86,321.73 257.39,739.98 353.9,1126.05 32.17,257.39 0,450.42 32.17,707.81 0,225.21 64.34,450.42 96.52,643.45 64.34,450.42 0,965.18 0,1415.6 -32.17,1351.27 -321.73,2573.83 -643.45,3828.57 -193.04,675.63 -772.15,1640.82 -1190.4,2187.75 -32.17,96.53 -96.52,128.7 -160.87,193.04 -1479.95,1930.37 -2059.05,1319.09 -3024.25,1383.43 -675.62,64.34 -1158.22,0 -1672.99,-482.59 -386.07,-353.9 -772.14,-739.98 -1061.7,-1190.4 -96.52,-128.69 -193.04,-289.56 -289.56,-450.42 -96.52,-128.69 -225.21,-321.73 -289.55,-482.59 -321.73,-643.45 -418.25,-739.98 -643.46,-1576.47 -418.25,-1608.63 -675.63,-3699.87 -450.42,-5340.69 32.17,-193.03 0,-450.42 32.17,-675.63 64.34,-579.11 289.56,-1158.22 546.94,-1672.98 386.07,-739.98 1190.4,-1447.78 1930.37,-1801.69 1126.04,-546.94 1158.22,-353.89 1705.16,-514.76zm-4439.86 5405.04l0 643.45c-64.34,-64.34 -160.86,-96.52 -225.21,-160.86l-193.04 64.34c-225.21,450.42 -128.69,707.81 -96.52,1222.57 64.34,868.67 0,482.59 225.21,1190.4 32.17,160.86 -64.34,386.07 -32.17,643.45 193.03,1029.53 772.14,965.18 900.84,1126.05 0,0 289.55,868.67 386.07,1061.7 257.38,450.42 514.76,1029.53 804.32,1383.43 128.69,128.7 193.03,257.39 321.72,386.07 386.07,450.42 997.36,1093.88 1576.47,1319.09 514.76,160.87 836.49,0 1351.26,32.17 900.84,32.17 1126.05,96.53 1994.72,-579.11l32.17 -64.34c225.21,-193.04 579.11,-579.11 772.15,-836.49 64.34,-64.34 96.52,-128.69 160.86,-225.21 289.56,-321.72 739.98,-1158.22 933.01,-1576.46 353.9,-804.32 160.87,-836.49 482.59,-965.19 321.73,-128.69 546.94,-418.24 643.46,-804.31 193.03,-739.98 -96.52,-321.73 160.86,-1222.57 128.7,-353.9 64.35,-804.32 96.53,-997.36 96.52,-418.24 193.03,-1383.43 -482.6,-997.35 0,-450.42 0,-836.49 -64.34,-1286.91 -32.17,-418.25 -32.17,-772.15 -160.86,-1190.4 -96.52,-418.25 -193.04,-675.62 -321.73,-1029.53 -128.69,-353.9 -321.73,-546.94 -514.76,-836.49 -418.25,-579.11 -836.49,-868.67 -1479.96,-1222.57 -2059.05,-1222.57 -4439.85,-611.28 -5951.97,868.67 -353.9,353.9 -804.32,1061.71 -997.36,1705.16 -386.07,1383.43 -193.03,1254.74 -321.73,2348.62z"/>
  <path class="fil0" d="M6836.73 11591.55c128.69,0 96.52,0 193.04,64.34l-193.04 -64.34zm-3056.42 128.69c193.03,96.52 450.42,-128.69 739.98,-128.69 160.86,0 289.55,32.17 450.42,32.17 193.03,32.17 257.38,-32.17 418.25,-32.17 160.86,0 257.38,64.34 450.42,32.17 160.86,0 289.55,-32.17 418.25,-32.17 321.73,-32.17 450.42,128.69 739.98,160.86l128.69 -160.86c-96.52,-96.53 -321.73,-160.87 -450.42,-225.21 -128.7,-96.52 -193.04,-193.03 -353.9,-289.56 -611.28,-353.89 -386.07,32.18 -933.01,32.18 -514.76,0 -289.56,-418.25 -933.01,0 -160.87,96.52 -225.21,193.03 -386.07,257.38 -96.53,64.34 -257.39,128.69 -321.73,160.86 -32.17,64.35 0,32.18 0,64.35l-32.17 64.34c289.55,32.17 739.98,-418.25 804.32,-450.42 418.25,-257.39 386.07,-128.7 546.94,-32.17 160.86,96.52 193.03,32.17 321.73,32.17 128.69,0 160.86,64.34 321.73,-32.17 96.52,-32.17 160.86,-96.53 257.38,-128.7 160.86,0 514.76,321.73 772.15,482.59l96.52 64.35c-353.9,-128.7 -321.73,-128.7 -739.98,-96.53 -353.89,64.35 -611.28,-64.34 -868.67,-32.17 -579.11,128.7 -579.11,-128.69 -1158.22,96.53 -321.73,160.86 -225.21,32.17 -289.56,160.86z"/>
  <path class="fil0" d="M7608.88 7248.22c-321.73,0 -643.46,-128.7 -804.32,-289.56l321.73 -193.04c96.52,128.7 64.34,418.25 418.25,418.25 289.55,0 353.9,-225.21 450.42,-418.25 128.69,0 353.9,96.53 418.25,160.87 -160.87,96.52 -546.94,321.73 -804.32,321.73zm-96.52 -546.94c64.34,0 128.69,-32.17 128.69,96.53 -32.17,64.34 -64.34,64.34 -160.86,64.34l32.17 -160.87zm32.17 257.39c193.03,-64.34 193.03,-64.34 193.03,-289.56l160.87 64.34c-128.7,611.29 -772.15,289.56 -579.12,-32.17 0,0 0,0 0,32.17l32.17 64.35c32.17,96.52 -32.17,0 32.17,96.52 64.35,32.17 96.53,64.34 160.87,64.34zm-900.84 0c257.38,386.07 997.35,546.94 1608.63,193.03 514.77,-321.72 225.21,-32.17 450.43,-160.86 -32.18,-225.21 -804.32,-450.42 -997.36,-450.42 -257.38,-32.17 -643.45,96.52 -868.67,225.21 -193.03,128.7 -160.86,96.53 -193.03,193.04z"/>
  <path class="fil0" d="M2525.57 6894.32l386.07 -160.87c0,32.17 96.52,418.25 418.25,450.42 128.69,0 257.39,-64.34 321.73,-128.69 64.34,-96.52 96.52,-225.21 128.69,-289.56 128.69,32.18 257.39,128.7 353.9,193.04 -514.76,386.07 -1029.54,353.9 -1512.13,0 -32.17,0 -32.17,0 -64.34,-32.17 -32.17,-32.17 0,32.17 -32.17,-32.17zm900.84 -225.21c32.17,160.87 32.17,128.7 -64.34,193.04 -64.34,-64.34 -128.69,-32.17 -32.17,-193.04l96.52 0zm-353.9 32.17l96.53 -32.17 32.17 193.04c64.34,0 32.17,-32.17 32.17,32.17l32.17 32.17 225.21 0 96.53 -225.21c32.17,32.17 32.17,-96.52 32.17,96.53 32.17,289.55 -450.42,386.07 -546.94,32.17l-32.17 -64.35c-32.17,-32.17 -32.17,32.18 0,-32.17 0,-64.34 0,-32.17 32.17,-32.17zm-868.67 289.56c128.7,64.34 96.52,-32.17 225.21,0 96.52,32.17 450.42,321.73 772.15,321.73 450.42,32.17 772.14,-64.34 1093.87,-353.9 -96.52,-225.21 -675.62,-450.42 -1061.7,-418.25 -193.04,0 -997.36,225.21 -1029.54,450.42z"/>
  <path class="fil0" d="M4616.81 6733.45c64.34,-32.17 64.34,-32.17 32.17,32.17l32.17 32.18c32.17,0 32.17,0 32.17,32.17 321.73,772.14 289.56,643.45 96.52,1544.29 -32.17,257.39 -128.69,418.25 -96.52,482.59 160.87,32.17 289.56,-707.8 353.9,-933.01 32.17,-160.86 128.69,-933.01 96.52,-1093.87 0,-160.87 32.17,-64.35 -64.34,-128.7l-64.34 289.56c0,64.34 0,160.86 -32.17,225.21 -32.17,-64.34 -32.17,-193.03 -96.52,-321.72 -64.35,-96.52 -128.7,-160.87 -193.04,-225.21l-64.34 -32.17c-96.52,32.17 0,-32.17 -64.34,32.17l32.17 64.34z"/>
  <path class="fil0" d="M6128.93 8824.68l96.53 32.17c0,-128.69 0,-32.17 -32.17,-128.69 -64.35,-193.03 -225.21,-836.49 -225.21,-1093.88 -32.17,-514.76 353.9,-900.84 386.07,-997.35 -193.03,0 -225.21,96.52 -289.56,225.21 -96.52,160.86 -96.52,257.38 -160.86,386.07 -32.17,-289.56 0,-450.42 -128.69,-579.12 -96.53,353.9 32.17,836.49 64.34,1190.4 64.34,321.73 160.86,739.98 289.55,965.18z"/>
  <path class="fil0" d="M6515 6797.8c386.07,-64.35 193.04,-514.77 1126.05,-353.9 289.56,32.17 707.81,160.86 965.18,257.38 96.53,64.34 128.7,128.7 257.39,96.53 -64.34,-289.56 -1415.6,-643.46 -1930.37,-450.43 -160.86,64.35 -386.07,289.56 -418.25,450.43z"/>
  <path class="fil0" d="M2075.15 6829.97c160.86,-32.17 353.9,-193.04 546.94,-257.39 257.39,-64.34 386.07,-96.52 675.63,-160.86 225.21,-32.17 450.42,-32.17 675.62,32.17 193.04,96.52 257.39,321.72 450.42,353.9 -32.17,-96.53 -289.55,-386.07 -386.07,-450.43 -225.21,-96.52 -514.77,-64.34 -739.98,-32.17 -257.39,32.17 -900.84,193.04 -1126.05,353.9 -96.52,64.34 -96.52,32.17 -96.52,160.87z"/>
  <path class="fil0" d="M4391.59 12009.8c64.35,160.86 0,96.52 160.87,193.03 96.52,64.34 128.69,96.52 225.21,128.69 257.39,32.17 1544.3,193.04 1640.82,-321.72 -321.73,64.34 -32.17,225.21 -1029.53,257.38 -933.01,0 -707.81,-225.21 -997.36,-257.38z"/>
  <path class="fil0" d="M4488.12 9017.72l-32.17 32.17 -32.18 32.17c0,64.34 32.18,32.17 -32.17,32.17l-32.17 32.17 0 64.34 -64.34 32.17c0,64.34 32.17,32.17 -32.17,32.17 -32.17,225.21 -96.52,257.39 0,514.76 64.34,128.7 128.69,257.39 257.39,321.73 64.34,64.34 160.86,128.69 289.55,96.52 160.87,-32.17 64.35,0 96.53,-64.34 -128.7,-64.34 -96.53,32.17 -225.21,-96.52 -96.52,0 -32.17,32.17 -128.69,-32.17l-193.04 -289.56c-64.34,-128.69 0,-386.07 96.53,-482.59l32.17 -64.34c0,-32.17 -32.17,-32.17 32.17,-32.17l32.17 -32.17c-32.17,-64.34 -32.17,-32.17 32.17,-32.17l32.17 -32.17 32.17 -96.52 -128.69 32.17c0,64.34 32.17,32.17 -32.17,32.17z"/>
  <path class="fil0" d="M6225.45 10047.25c-96.53,160.86 -128.7,-32.17 -225.21,160.86 64.34,0 96.52,0 160.87,0 160.86,0 64.34,0 160.86,-32.17 0,0 772.15,-546.94 128.69,-1126.04 -96.52,-96.52 -32.17,-64.34 -160.86,-64.34 32.17,193.03 289.56,225.21 289.56,579.11 0,160.86 0,193.03 -96.53,321.73 -128.69,128.69 -128.69,160.86 -257.38,160.86z"/>
  <path class="fil1" d="M10182.71 8438.61l0 128.7c0,0 32.17,0 32.17,0l96.52 -96.53c225.21,-321.72 64.34,-675.62 -32.17,-965.18l-96.52 933.01z"/>
  <path class="fil0" d="M6193.28 9854.22c-32.17,32.17 -32.17,32.17 -96.53,0l96.53 0zm-353.9 0c0,64.34 0,64.34 -64.34,32.17l32.17 64.34 96.52 0c0,-96.52 64.34,0 64.34,0l64.34 32.17 64.34 32.17c289.56,-32.17 321.73,-257.39 128.7,-289.56 -96.53,-32.17 -321.73,96.53 -386.07,128.7z"/>
  <path class="fil0" d="M4713.32 9854.22c64.34,-32.17 64.34,0 96.52,32.17 -96.52,32.17 -64.34,-32.17 -96.52,-32.17zm-96.52 -96.53c-32.17,96.53 -32.17,0 -32.17,160.87l32.17 32.17 32.17 32.17 64.34 32.17 257.39 -64.34 160.86 -32.17c-32.17,-96.52 -128.69,-96.52 -257.38,-160.87 -128.7,0 -64.35,0 -96.53,-32.17l-160.86 32.17z"/>
  <path class="fil0" d="M6708.04 7344.74l32.17 32.17 836.49 257.38c-64.34,-193.03 -611.29,-321.72 -772.15,-353.89l-96.52 0 0 64.34z"/>
  <path class="fil0" d="M3555.1 7441.25c-64.34,64.34 -128.69,64.34 -193.03,128.69 64.34,32.17 -96.52,32.17 96.52,32.17 128.7,-64.34 257.39,-96.52 418.25,-128.69 257.39,-96.52 321.73,-64.34 353.9,-193.03 -128.69,-64.35 -482.59,128.69 -675.63,160.86z"/>
  <path class="fil0" d="M5067.23 10111.59c321.73,128.69 450.42,128.69 772.15,0l32.17 -96.52 -96.52 0c0,32.17 0,32.17 -64.34,32.17 -193.04,96.52 -289.56,64.34 -514.77,0l-32.17 -32.17 -128.69 0 32.17 96.52z"/>
  <path class="fil0" d="M5935.89 9307.27c0,289.56 -160.86,353.9 -128.69,450.42 225.21,96.53 257.38,-418.25 257.38,-546.94l-32.17 -64.34c-64.34,32.17 0,-32.17 -64.34,64.34l-32.17 96.52z"/>
  <path class="fil0" d="M5131.57 9789.86c0,-64.34 32.17,64.35 0,-96.52 -32.17,-32.17 -32.17,0 -64.34,-64.34 -160.86,-257.39 -32.17,-386.07 -160.86,-514.76 -128.7,128.69 0,675.62 225.21,675.62z"/>
  <path class="fil1" d="M273.48 7087.35l-32.17 -257.38 -64.34 -32.17c0,96.52 0,160.86 0,257.38 0,96.52 0,193.04 64.34,225.21l32.17 -193.04z"/>
 </g>
</svg>
