<?xml version="1.0" encoding="UTF-8"?>
<!DOCTYPE svg PUBLIC "-//W3C//DTD SVG 1.1//EN" "http://www.w3.org/Graphics/SVG/1.1/DTD/svg11.dtd">
<!-- Creator: CorelDRAW 2019 (64-Bit) -->
<svg xmlns="http://www.w3.org/2000/svg" xml:space="preserve" width="400" height="400" version="1.1" style="shape-rendering:geometricPrecision; text-rendering:geometricPrecision; image-rendering:optimizeQuality; fill-rule:evenodd; clip-rule:evenodd"
viewBox="0 0 20488.65 20753.08"
 xmlns:xlink="http://www.w3.org/1999/xlink">
 <defs>
  <style type="text/css">
   <![CDATA[
    .fil0 {fill:#020103}
    .fil1 {fill:#251F14}
   ]]>
  </style>
 </defs>
 <g id="Capa_x0020_1">
  <metadata id="CorelCorpID_0Corel-Layer"/>
  <g id="_1038843199888">
   <path class="fil0" d="M13890.6 18694.16c-244.9,163.26 -408.18,1224.51 -1142.87,1387.77 -653.07,244.9 -1387.79,326.54 -2122.48,163.26 -408.18,-81.62 -734.71,81.64 -1142.89,81.64 -2612.28,0 -2040.84,-897.97 -2449.02,-1224.51l244.92 816.35c-326.54,-81.64 -1387.79,-489.81 -1714.32,-653.07 408.18,-979.61 81.64,-2612.29 0,-3673.53 -163.26,-1224.51 -571.44,-2040.86 -979.61,-3102.09 -408.16,-979.61 -653.07,-2040.84 -979.59,-3102.09 -81.64,-571.44 -489.81,-3265.35 -571.45,-3510.25 -326.52,1469.41 653.07,3755.15 653.07,4898.03 -1551.05,-81.64 -2612.28,-734.71 -3020.45,-1877.58 -326.54,-1061.25 -653.07,-3102.09 -81.64,-4163.34 653.07,-1142.87 1632.68,-1306.13 3102.09,-1795.94l3591.9 -1306.13c-489.81,1469.41 -653.07,979.59 -734.71,1469.41 979.61,0 1142.87,-2285.76 1061.23,-3102.09 -244.9,489.8 0,1306.15 -571.44,1551.05l-3673.53 1224.51c-1224.51,408.16 -2530.64,653.07 -3102.07,2040.84 -734.71,1795.94 326.52,3836.79 408.16,4244.96 0,571.44 -81.64,408.18 326.54,816.33 734.71,816.35 1551.05,1061.25 2775.55,1061.25 244.9,653.07 408.18,1306.15 653.07,1959.22 163.26,326.52 244.9,571.44 408.18,897.97 163.26,326.54 163.26,653.06 244.9,979.59 408.16,897.97 408.16,1061.25 408.16,2204.12 0,816.33 0,1632.68 -244.9,2285.76 1551.05,653.07 2857.19,1632.67 5142.93,1469.41 2040.86,-163.28 3102.09,-326.54 4653.14,-1306.15 571.44,-326.54 326.54,-163.26 163.28,-1224.51 -81.64,-653.07 0,-1877.58 81.62,-2530.66 81.64,-326.52 326.54,-816.33 326.54,-979.59 -81.64,-489.81 -244.9,0 -81.64,-489.81 0,0 979.61,-2204.1 1142.89,-3265.35 979.61,0 1387.77,-81.64 2122.48,-489.8 1061.23,-571.45 979.61,-897.97 1061.23,-1469.42 81.64,-244.9 244.9,-571.44 326.54,-979.59 81.64,-326.54 163.28,-653.07 244.9,-1061.25 244.92,-1714.31 -163.26,-2693.92 -1469.41,-3510.25 -326.54,-163.28 -3183.71,-1142.89 -3836.79,-1306.15 -1632.68,-571.44 -1877.58,-408.18 -2040.84,-979.61l-163.28 -1142.87c-81.64,653.07 0,1959.2 408.18,2612.28 163.26,244.9 244.9,408.18 571.44,489.81 0,-408.18 -571.44,-653.07 -653.07,-1469.41 489.8,81.62 2693.92,1061.23 3673.53,1306.13 1061.23,326.54 2449.02,571.44 3020.45,1877.58 571.44,1061.25 244.9,3102.09 -163.26,4081.7 -244.92,734.7 -489.81,1061.23 -1061.25,1387.77 -489.8,244.9 -1306.15,489.81 -1877.58,408.18 -81.64,-653.07 816.35,-3183.73 653.07,-4734.77 -81.64,81.64 -81.64,-163.26 -163.26,244.92l-81.64 897.97c-81.64,408.16 -81.64,734.7 -163.28,1142.87 -244.9,1387.77 -1142.87,4898.03 -1877.57,5959.27 163.26,408.18 81.62,0 163.26,244.9 81.64,244.92 -653.07,2367.4 -244.9,4816.41 -408.18,244.9 -1224.51,571.44 -1714.32,653.07 163.28,-489.81 408.18,-734.71 489.81,-1224.51z"/>
   <path class="fil0" d="M8176.23 16490.04c244.9,163.26 653.06,163.26 897.97,81.64 326.54,-81.64 897.97,-734.71 979.59,-979.61 163.28,-163.28 244.92,-326.54 326.54,-653.07 -653.07,1224.51 -734.7,979.61 -2204.1,1551.05z"/>
   <path class="fil0" d="M8094.59 14041.03c816.33,-81.64 1795.94,-408.18 1795.94,-1224.51 -244.9,163.26 -163.28,244.9 -408.18,408.16 -408.16,326.54 -1061.23,571.45 -1387.77,816.35z"/>
   <path class="fil0" d="M14706.93 10775.68c0,0 -81.64,244.9 408.18,0 734.7,-244.92 1387.77,-1224.51 1632.67,-1877.58 -734.7,1306.13 -1469.41,1469.41 -2040.84,1877.58z"/>
   <path class="fil0" d="M11115.04 13224.68c-244.9,-244.9 -81.64,-163.26 -326.54,-408.16 0,816.33 1061.25,1142.87 1795.94,1224.51 0,-81.64 81.64,0 -163.26,-81.64l-1306.15 -734.71z"/>
   <path class="fil0" d="M10870.15 15836.97c163.26,163.26 81.62,163.26 244.9,408.18 81.64,81.62 244.9,163.26 326.54,244.9 163.26,81.64 326.54,81.64 571.44,81.64 326.54,0 326.54,0 489.8,-81.64 -1224.51,-408.18 -734.7,-244.9 -1632.67,-653.07z"/>
   <path class="fil0" d="M11523.22 9551.17c326.54,244.9 897.97,489.8 1306.13,571.44 571.44,244.9 897.97,408.16 1387.79,489.8 -489.81,-326.54 -1959.22,-897.97 -2693.92,-1061.23z"/>
   <path class="fil0" d="M9237.46 9551.17c-489.8,81.62 -2367.38,816.33 -2775.55,1061.23 816.35,-163.26 1959.22,-653.07 2775.55,-1061.23z"/>
   <path class="fil0" d="M11115.04 18775.79c244.9,244.9 571.44,163.28 1061.23,0l244.92 -163.26c-244.92,0 -489.81,0 -734.71,0 -81.64,0 -244.9,0 -326.54,0 -244.9,81.64 -163.26,81.64 -244.9,163.26z"/>
   <path class="fil0" d="M8257.85 18612.53c326.54,163.26 979.61,408.16 1387.79,163.26 -244.9,-163.26 -571.44,-163.26 -897.97,-163.26l-163.28 0 -326.54 0z"/>
   <path class="fil1" d="M10788.51 10775.68c244.9,-81.64 653.07,-408.18 816.33,-653.07 -489.8,81.62 -734.7,326.54 -816.33,653.07z"/>
   <path class="fil0" d="M9074.2 10367.5c244.9,163.26 653.06,244.9 979.59,244.9 -81.62,-244.9 81.64,-81.64 -163.26,-163.26 -81.64,-163.28 -653.07,-81.64 -816.33,-81.64z"/>
   <path class="fil0" d="M10298.71 18612.53c81.62,-81.64 163.26,244.9 81.62,-244.9l-163.26 -244.92 81.64 489.81z"/>
  </g>
 </g>
</svg>
