<?xml version="1.0" encoding="UTF-8"?>
<!DOCTYPE svg PUBLIC "-//W3C//DTD SVG 1.1//EN" "http://www.w3.org/Graphics/SVG/1.1/DTD/svg11.dtd">
<!-- Creator: CorelDRAW 2019 (64-Bit) -->
<svg xmlns="http://www.w3.org/2000/svg" xml:space="preserve" width="400" height="400" version="1.1" style="shape-rendering:geometricPrecision; text-rendering:geometricPrecision; image-rendering:optimizeQuality; fill-rule:evenodd; clip-rule:evenodd"
viewBox="0 0 24446.71 24762.21"
 xmlns:xlink="http://www.w3.org/1999/xlink">
 <defs>
  <style type="text/css">
   <![CDATA[
    .fil0 {fill:#020103}
    .fil1 {fill:#251F14}
   ]]>
  </style>
 </defs>
 <g id="Capa_x0020_1">
  <metadata id="CorelCorpID_0Corel-Layer"/>
  <g id="_1038850516272">
   <path class="fil0" d="M16574.02 22305.54c-292.21,194.81 -487.03,1461.07 -1363.66,1655.87 -779.24,292.21 -1655.87,389.62 -2532.51,194.8 -487.03,-97.4 -876.63,97.41 -1363.66,97.41 -3116.93,0 -2435.1,-1071.45 -2922.12,-1461.06l292.21 974.04c-389.62,-97.41 -1655.87,-584.43 -2045.48,-779.24 487.02,-1168.85 97.4,-3116.93 0,-4383.18 -194.81,-1461.07 -681.83,-2435.11 -1168.86,-3701.36 -487.02,-1168.85 -779.23,-2435.1 -1168.85,-3701.35 -97.41,-681.83 -584.42,-3896.17 -681.83,-4188.38 -389.62,1753.27 779.24,4480.59 779.24,5844.24 -1850.69,-97.4 -3116.94,-876.63 -3603.95,-2240.29 -389.62,-1266.25 -779.24,-3701.35 -97.41,-4967.6 779.24,-1363.66 1948.08,-1558.46 3701.36,-2142.9l4285.77 -1558.46c-584.42,1753.28 -779.23,1168.86 -876.63,1753.28 1168.85,0 1363.66,-2727.32 1266.25,-3701.36 -292.21,584.42 0,1558.46 -681.83,1850.69l-4383.18 1461.06c-1461.07,487.03 -3019.53,779.24 -3701.36,2435.1 -876.63,2142.9 389.62,4578 487.03,5065.02 0,681.83 -97.41,487.02 389.62,974.04 876.63,974.04 1850.68,1266.25 3311.73,1266.25 292.21,779.23 487.03,1558.46 779.24,2337.7 194.8,389.61 292.21,681.82 487.02,1071.44 194.81,389.62 194.81,779.24 292.21,1168.86 487.03,1071.44 487.03,1266.25 487.03,2629.9 0,974.04 0,1948.08 -292.21,2727.32 1850.68,779.24 3409.14,1948.08 6136.46,1753.28 2435.1,-194.81 3701.35,-389.62 5552.04,-1558.47 681.82,-389.61 389.61,-194.8 194.8,-1461.06 -97.41,-779.24 0,-2240.29 97.41,-3019.53 97.4,-389.61 389.61,-974.04 389.61,-1168.85 -97.4,-584.42 -292.21,0 -97.4,-584.42 0,0 1168.85,-2629.91 1363.66,-3896.17 1168.85,0 1655.86,-97.41 2532.51,-584.42 1266.25,-681.83 1168.85,-1071.45 1266.25,-1753.28 97.4,-292.21 292.21,-681.83 389.62,-1168.85 97.4,-389.62 194.8,-779.24 292.21,-1266.25 292.21,-2045.49 -194.81,-3214.34 -1753.28,-4188.38 -389.62,-194.81 -3798.76,-1363.66 -4578,-1558.47 -1948.08,-681.82 -2240.29,-487.02 -2435.1,-1168.85l-194.81 -1363.66c-97.4,779.24 0,2337.7 487.03,3116.94 194.8,292.21 292.21,487.02 681.83,584.42 0,-487.03 -681.83,-779.24 -779.24,-1753.28 584.42,97.41 3214.34,1266.25 4383.19,1558.46 1266.25,389.62 2922.12,681.83 3603.94,2240.29 681.83,1266.26 292.22,3701.36 -194.8,4870.21 -292.21,876.64 -584.42,1266.25 -1266.25,1655.87 -584.42,292.21 -1558.46,584.42 -2240.29,487.03 -97.41,-779.24 974.04,-3798.76 779.24,-5649.44 -97.41,97.41 -97.41,-194.8 -194.81,292.21l-97.41 1071.45c-97.4,487.03 -97.4,876.63 -194.8,1363.66 -292.21,1655.87 -1363.66,5844.25 -2240.29,7110.5 194.8,487.02 97.41,0 194.8,292.21 97.41,292.21 -779.23,2824.72 -292.21,5746.84 -487.02,292.21 -1461.06,681.83 -2045.48,779.24 194.8,-584.43 487.02,-876.64 584.42,-1461.07z"/>
   <path class="fil0" d="M9755.73 19675.62c292.21,194.81 779.24,194.81 1071.45,97.41 389.61,-97.41 1071.44,-876.63 1168.85,-1168.85 194.8,-194.81 292.21,-389.62 389.62,-779.24 -779.24,1461.06 -876.63,1168.85 -2629.91,1850.68z"/>
   <path class="fil0" d="M9658.32 16753.5c974.04,-97.4 2142.9,-487.02 2142.9,-1461.06 -292.21,194.8 -194.81,292.21 -487.03,487.02 -487.02,389.62 -1266.25,681.83 -1655.87,974.04z"/>
   <path class="fil0" d="M17548.06 12857.33c0,0 -97.41,292.22 487.02,0 876.64,-292.21 1655.87,-1461.06 1948.08,-2240.29 -876.63,1558.47 -1753.27,1753.28 -2435.1,2240.29z"/>
   <path class="fil0" d="M13262.28 15779.46c-292.21,-292.21 -97.41,-194.8 -389.62,-487.02 0,974.04 1266.25,1363.66 2142.9,1461.06 0,-97.4 97.4,0 -194.81,-97.4l-1558.46 -876.64z"/>
   <path class="fil0" d="M12970.07 18896.4c194.8,194.8 97.41,194.8 292.21,487.02 97.41,97.41 292.21,194.81 389.62,292.21 194.8,97.41 389.62,97.41 681.83,97.41 389.62,0 389.62,0 584.42,-97.41 -1461.07,-487.02 -876.63,-292.21 -1948.08,-779.23z"/>
   <path class="fil0" d="M13749.3 11396.28c389.61,292.21 1071.44,584.42 1558.46,681.83 681.83,292.21 1071.44,487.02 1655.87,584.42 -584.43,-389.62 -2337.7,-1071.45 -3214.34,-1266.25z"/>
   <path class="fil0" d="M11021.98 11396.28c-584.42,97.41 -2824.72,974.04 -3311.74,1266.25 974.04,-194.8 2337.7,-779.24 3311.74,-1266.25z"/>
   <path class="fil0" d="M13262.28 22402.94c292.21,292.21 681.83,194.8 1266.25,0l292.21 -194.81c-292.21,0 -584.42,0 -876.63,0 -97.41,0 -292.21,0 -389.62,0 -292.21,97.41 -194.8,97.41 -292.21,194.81z"/>
   <path class="fil0" d="M9853.14 22208.13c389.61,194.81 1168.85,487.03 1655.87,194.81 -292.22,-194.81 -681.83,-194.81 -1071.45,-194.81l-194.81 0 -389.61 0z"/>
   <path class="fil1" d="M12872.66 12857.33c292.21,-97.4 779.24,-487.02 974.04,-779.23 -584.42,97.41 -876.63,389.62 -974.04,779.23z"/>
   <path class="fil0" d="M10827.18 12370.32c292.21,194.8 779.23,292.21 1168.85,292.21 -97.41,-292.21 97.41,-97.41 -194.8,-194.8 -97.41,-194.81 -779.24,-97.41 -974.04,-97.41z"/>
   <path class="fil0" d="M12288.24 22208.13c97.41,-97.4 194.8,292.22 97.41,-292.21l-194.81 -292.21 97.41 584.42z"/>
  </g>
 </g>
</svg>
